<?xml version="1.0" encoding="UTF-8"?>
<svg width="222px" height="222px" viewBox="0 0 222 222" version="1.1" xmlns="http://www.w3.org/2000/svg" xmlns:xlink="http://www.w3.org/1999/xlink">
    <!-- Generator: Sketch 46.1 (44463) - http://www.bohemiancoding.com/sketch -->
    <title>icon/Icon_Red</title>
    <desc>Created with Sketch.</desc>
    <defs></defs>
    <g id="Assets" stroke="none" stroke-width="1" fill="none" fill-rule="evenodd">
        <g id="icon/Icon_Red">
            <g id="Group-2">
                <path d="M190.304205,115.046903 C192.638449,111.852598 193.08464,107.357102 189.465678,103.737258 C173.438678,87.7092584 157.410678,71.6822584 141.382678,55.6542584 C133.167678,47.4402584 120.439678,60.1672584 128.654678,68.3832584 C142.505857,82.234438 156.357784,96.0871114 170.209812,109.938051 C158.347428,121.80196 146.484637,133.664435 134.622249,145.526692 C120.715013,131.620548 106.80853,117.713198 92.9028,103.8066 C84.6868,95.5936 71.9588,108.3206 80.1738,116.5356 C96.2018,132.5646 112.2298,148.5926 128.2578,164.6196 C130.234934,166.596975 132.4736,167.360898 134.618807,167.266402 C136.765935,167.362426 139.007096,166.598804 140.9863,164.6196 C157.0133,148.5926 173.0413,132.5646 189.0683,116.5356 C189.550794,116.053224 189.961043,115.555272 190.304205,115.046903 Z M86.5432426,53.0791121 C84.3954018,52.9822326 82.1533244,53.7452986 80.1733,55.7246 C64.1463,71.7526 48.1183,87.7796 32.0913,103.8066 C30.1123589,105.786023 29.3487346,108.02716 29.4445778,110.174218 C29.3495504,112.320019 30.1132258,114.559426 32.0909,116.5371 C48.1179,132.5651 64.1459,148.5921 80.1739,164.6211 C88.3889,172.8341 101.1169,160.1081 92.9019,151.8911 C78.9960686,137.987004 65.0894845,124.079144 51.1828007,110.172745 C62.9678442,98.3886398 74.7528161,86.6032703 86.537319,74.8186243 C100.444748,88.725201 114.351524,102.631224 128.2583,116.538 C136.4733,124.75 149.2013,112.024 140.9863,103.809 C124.9583,87.782 108.9303,71.753 92.9023,55.726 C90.9257647,53.7492241 88.687856,52.9851649 86.5432426,53.0791121 Z M110.989,221.976 C49.691,221.976 0,172.285 0,110.986 C0,49.694 49.69,0 110.989,0 C172.287,0 221.977,49.694 221.977,110.986 C221.977,172.283 172.286,221.976 110.989,221.976 Z" id="Combined-Shape" fill="#C8102E"></path>
                <g id="Group" transform="translate(29.000000, 53.000000)"></g>
            </g>
        </g>
    </g>
</svg>